<svg width="137" height="40" viewBox="0 0 137 40" fill="none" xmlns="http://www.w3.org/2000/svg">
<g clip-path="url(#clip0_593_1788)">
<path d="M31.145 16.8427C30.5853 14.9128 29.567 13.147 28.177 11.6959C26.787 10.2448 25.0666 9.15153 23.1625 8.50937C21.2814 7.96182 19.3042 7.82727 17.3663 8.11493C15.4283 8.4026 13.5754 9.10568 11.9345 10.176C11.7995 10.3113 11.6301 10.4073 11.4447 10.4537C11.2592 10.5001 11.0647 10.495 10.8818 10.4392C10.5133 10.3198 10.1812 10.1085 9.91693 9.82516C9.72455 9.47805 9.66234 9.07369 9.7415 8.6848C9.79175 8.49815 9.88003 8.32388 10.0008 8.17294C10.1215 8.02199 10.2722 7.89762 10.4433 7.80761C15.0924 5.08831 19.6538 4.38656 24.0397 5.79007C26.199 6.50829 28.1704 7.70025 29.8096 9.27872C31.4488 10.8572 32.7143 12.7822 33.5134 14.9129H39.3906C38.1889 10.1725 35.292 6.03671 31.2476 3.28744C27.2032 0.538175 22.2917 -0.634016 17.4417 -0.00750837C12.5916 0.619 8.13922 3.00078 4.92624 6.68753C1.71325 10.3743 -0.0376241 15.1104 0.00465442 20.0006C0.00465442 20.7901 0.0923737 21.4918 0.0923737 22.2813H7.54851C7.83327 22.2651 8.11557 22.342 8.35289 22.5002C8.59021 22.6584 8.76969 22.8894 8.8643 23.1585C9.43723 25.0817 10.4601 26.8408 11.8483 28.29C13.2365 29.7392 14.9499 30.8367 16.8468 31.4918C18.7279 32.0394 20.7051 32.1739 22.643 31.8863C24.581 31.5986 26.4339 30.8955 28.0748 29.8252C28.2099 29.6898 28.3792 29.5939 28.5646 29.5475C28.7501 29.5011 28.9446 29.5062 29.1275 29.562C29.496 29.6814 29.8281 29.8927 30.0924 30.176C30.2848 30.5231 30.347 30.9275 30.2678 31.3164C30.2176 31.503 30.1293 31.6773 30.0085 31.8283C29.8878 31.9792 29.7371 32.1036 29.5661 32.1936C26.9219 33.9728 23.8057 34.9198 20.6187 34.9129C19.0435 34.901 17.4781 34.6647 15.9696 34.2111C13.8012 33.51 11.8211 32.3241 10.1796 30.7434C8.53803 29.1627 7.27826 27.2287 6.49588 25.0883H0.706409C1.97453 29.7507 4.88766 33.7964 8.90731 36.4776C12.927 39.1588 17.7814 40.2941 22.5732 39.6737C27.365 39.0534 31.7702 36.7192 34.9745 33.1028C38.1789 29.4864 39.9657 24.8322 40.0047 20.0006C40.021 19.2685 39.9917 18.5361 39.9169 17.8076H32.5485C32.2494 17.7878 31.9612 17.6878 31.7142 17.518C31.4672 17.3482 31.2706 17.1149 31.145 16.8427Z" fill="#100A42"/>
<path d="M20.088 28.7501C21.8149 28.7335 23.4983 28.2062 24.9261 27.2347C26.354 26.2632 27.4624 24.8909 28.1117 23.2907C28.7611 21.6904 28.9225 19.9338 28.5754 18.2421C28.2283 16.5503 27.3884 14.9991 26.1614 13.7838C24.9344 12.5685 23.3752 11.7434 21.6802 11.4126C19.9852 11.0817 18.2302 11.2598 16.6363 11.9245C15.0423 12.5892 13.6807 13.7107 12.7229 15.1477C11.7651 16.5848 11.254 18.2731 11.2539 20.0001C11.2539 21.1563 11.4829 22.301 11.9279 23.3681C12.3729 24.4352 13.025 25.4036 13.8464 26.2172C14.6678 27.0308 15.6424 27.6736 16.7137 28.1083C17.785 28.5431 18.9319 28.7612 20.088 28.7501Z" fill="white"/>
</g>
<path d="M49.0114 25.5V13.8636H51.4716V18.6648H56.4659V13.8636H58.9205V25.5H56.4659V20.6932H51.4716V25.5H49.0114ZM64.8807 25.6705C63.983 25.6705 63.2102 25.4886 62.5625 25.125C61.9186 24.7576 61.4223 24.2386 61.0739 23.5682C60.7254 22.8939 60.5511 22.0966 60.5511 21.1761C60.5511 20.2784 60.7254 19.4905 61.0739 18.8125C61.4223 18.1345 61.9129 17.6061 62.5455 17.2273C63.1818 16.8485 63.928 16.6591 64.7841 16.6591C65.3598 16.6591 65.8958 16.7519 66.392 16.9375C66.892 17.1193 67.3277 17.3939 67.6989 17.7614C68.0739 18.1288 68.3655 18.5909 68.5739 19.1477C68.7822 19.7008 68.8864 20.3485 68.8864 21.0909V21.7557H61.517V20.2557H66.608C66.608 19.9072 66.5322 19.5985 66.3807 19.3295C66.2292 19.0606 66.0189 18.8504 65.75 18.6989C65.4848 18.5436 65.1761 18.4659 64.8239 18.4659C64.4564 18.4659 64.1307 18.5511 63.8466 18.7216C63.5663 18.8883 63.3466 19.1136 63.1875 19.3977C63.0284 19.678 62.947 19.9905 62.9432 20.3352V21.7614C62.9432 22.1932 63.0227 22.5663 63.1818 22.8807C63.3447 23.1951 63.5739 23.4375 63.8693 23.608C64.1648 23.7784 64.5152 23.8636 64.9205 23.8636C65.1894 23.8636 65.4356 23.8258 65.6591 23.75C65.8826 23.6742 66.0739 23.5606 66.233 23.4091C66.392 23.2576 66.5133 23.072 66.5966 22.8523L68.8352 23C68.7216 23.5379 68.4886 24.0076 68.1364 24.4091C67.7879 24.8068 67.3371 25.1174 66.7841 25.3409C66.2348 25.5606 65.6004 25.6705 64.8807 25.6705ZM72.8864 13.8636V25.5H70.4659V13.8636H72.8864ZM74.8253 28.7727V16.7727H77.2116V18.2386H77.3196C77.4257 18.0038 77.5791 17.7652 77.7798 17.5227C77.9844 17.2765 78.2495 17.072 78.5753 16.9091C78.9048 16.7424 79.3139 16.6591 79.8026 16.6591C80.4389 16.6591 81.026 16.8258 81.5639 17.1591C82.1018 17.4886 82.5317 17.9867 82.8537 18.6534C83.1757 19.3163 83.3366 20.1477 83.3366 21.1477C83.3366 22.1212 83.1795 22.9432 82.8651 23.6136C82.5545 24.2803 82.1302 24.786 81.5923 25.1307C81.0582 25.4716 80.4598 25.642 79.7969 25.642C79.3272 25.642 78.9276 25.5644 78.598 25.4091C78.2723 25.2538 78.0052 25.0587 77.7969 24.8239C77.5885 24.5852 77.4295 24.3447 77.3196 24.1023H77.2457V28.7727H74.8253ZM77.1946 21.1364C77.1946 21.6553 77.2666 22.108 77.4105 22.4943C77.5545 22.8807 77.7628 23.1818 78.0355 23.3977C78.3082 23.6098 78.6397 23.7159 79.0298 23.7159C79.4238 23.7159 79.7571 23.608 80.0298 23.392C80.3026 23.1723 80.509 22.8693 80.6491 22.483C80.7931 22.0928 80.8651 21.6439 80.8651 21.1364C80.8651 20.6326 80.795 20.1894 80.6548 19.8068C80.5147 19.4242 80.3082 19.125 80.0355 18.9091C79.7628 18.6932 79.4276 18.5852 79.0298 18.5852C78.6359 18.5852 78.3026 18.6894 78.0298 18.8977C77.7609 19.1061 77.5545 19.4015 77.4105 19.7841C77.2666 20.1667 77.1946 20.6174 77.1946 21.1364ZM84.9957 13.8636H88.0298L91.2344 21.6818H91.3707L94.5753 13.8636H97.6094V25.5H95.223V17.9261H95.1264L92.1151 25.4432H90.4901L87.4787 17.8977H87.3821V25.5H84.9957V13.8636ZM103.568 25.6705C102.67 25.6705 101.898 25.4886 101.25 25.125C100.606 24.7576 100.11 24.2386 99.7614 23.5682C99.4129 22.8939 99.2386 22.0966 99.2386 21.1761C99.2386 20.2784 99.4129 19.4905 99.7614 18.8125C100.11 18.1345 100.6 17.6061 101.233 17.2273C101.869 16.8485 102.616 16.6591 103.472 16.6591C104.047 16.6591 104.583 16.7519 105.08 16.9375C105.58 17.1193 106.015 17.3939 106.386 17.7614C106.761 18.1288 107.053 18.5909 107.261 19.1477C107.47 19.7008 107.574 20.3485 107.574 21.0909V21.7557H100.205V20.2557H105.295C105.295 19.9072 105.22 19.5985 105.068 19.3295C104.917 19.0606 104.706 18.8504 104.438 18.6989C104.172 18.5436 103.864 18.4659 103.511 18.4659C103.144 18.4659 102.818 18.5511 102.534 18.7216C102.254 18.8883 102.034 19.1136 101.875 19.3977C101.716 19.678 101.634 19.9905 101.631 20.3352V21.7614C101.631 22.1932 101.71 22.5663 101.869 22.8807C102.032 23.1951 102.261 23.4375 102.557 23.608C102.852 23.7784 103.203 23.8636 103.608 23.8636C103.877 23.8636 104.123 23.8258 104.347 23.75C104.57 23.6742 104.761 23.5606 104.92 23.4091C105.08 23.2576 105.201 23.072 105.284 22.8523L107.523 23C107.409 23.5379 107.176 24.0076 106.824 24.4091C106.475 24.8068 106.025 25.1174 105.472 25.3409C104.922 25.5606 104.288 25.6705 103.568 25.6705ZM119.892 19.6818C119.892 20.9508 119.652 22.0303 119.17 22.9205C118.693 23.8106 118.042 24.4905 117.216 24.9602C116.394 25.4261 115.47 25.6591 114.443 25.6591C113.409 25.6591 112.481 25.4242 111.659 24.9545C110.837 24.4848 110.188 23.8049 109.71 22.9148C109.233 22.0246 108.994 20.947 108.994 19.6818C108.994 18.4129 109.233 17.3333 109.71 16.4432C110.188 15.553 110.837 14.875 111.659 14.4091C112.481 13.9394 113.409 13.7045 114.443 13.7045C115.47 13.7045 116.394 13.9394 117.216 14.4091C118.042 14.875 118.693 15.553 119.17 16.4432C119.652 17.3333 119.892 18.4129 119.892 19.6818ZM117.398 19.6818C117.398 18.8598 117.275 18.1667 117.028 17.6023C116.786 17.0379 116.443 16.6098 116 16.3182C115.557 16.0265 115.038 15.8807 114.443 15.8807C113.848 15.8807 113.33 16.0265 112.886 16.3182C112.443 16.6098 112.098 17.0379 111.852 17.6023C111.61 18.1667 111.489 18.8598 111.489 19.6818C111.489 20.5038 111.61 21.197 111.852 21.7614C112.098 22.3258 112.443 22.7538 112.886 23.0455C113.33 23.3371 113.848 23.483 114.443 23.483C115.038 23.483 115.557 23.3371 116 23.0455C116.443 22.7538 116.786 22.3258 117.028 21.7614C117.275 21.197 117.398 20.5038 117.398 19.6818ZM127.266 21.7841V16.7727H129.686V25.5H127.362V23.9148H127.271C127.074 24.4261 126.747 24.8371 126.288 25.1477C125.834 25.4583 125.279 25.6136 124.624 25.6136C124.04 25.6136 123.527 25.4811 123.084 25.2159C122.641 24.9508 122.294 24.5739 122.044 24.0852C121.798 23.5966 121.673 23.0114 121.669 22.3295V16.7727H124.089V21.8977C124.093 22.4129 124.232 22.8201 124.504 23.1193C124.777 23.4186 125.143 23.5682 125.601 23.5682C125.893 23.5682 126.165 23.5019 126.419 23.3693C126.673 23.233 126.877 23.0322 127.033 22.767C127.192 22.5019 127.269 22.1742 127.266 21.7841ZM136.264 16.7727V18.5909H131.009V16.7727H136.264ZM132.202 14.6818H134.622V22.8182C134.622 23.0417 134.656 23.2159 134.724 23.3409C134.793 23.4621 134.887 23.5473 135.009 23.5966C135.134 23.6458 135.277 23.6705 135.44 23.6705C135.554 23.6705 135.668 23.661 135.781 23.642C135.895 23.6193 135.982 23.6023 136.043 23.5909L136.423 25.392C136.302 25.4299 136.132 25.4735 135.912 25.5227C135.692 25.5758 135.425 25.608 135.111 25.6193C134.527 25.642 134.016 25.5644 133.577 25.3864C133.141 25.2083 132.802 24.9318 132.56 24.5568C132.317 24.1818 132.198 23.7083 132.202 23.1364V14.6818Z" fill="#100A42"/>
<defs>
<clipPath id="clip0_593_1788">
<rect width="40" height="40" fill="white"/>
</clipPath>
</defs>
</svg>
